<?xml version="1.0" standalone="no"?>
<!DOCTYPE svg PUBLIC "-//W3C//DTD SVG 20010904//EN"
 "http://www.w3.org/TR/2001/REC-SVG-20010904/DTD/svg10.dtd">
<svg version="1.0" xmlns="http://www.w3.org/2000/svg"
 width="7730.000000pt" height="7730.000000pt" viewBox="0 0 7730.000000 7730.000000"
 preserveAspectRatio="xMidYMid meet">
<metadata>
Created by potrace 1.16, written by Peter Selinger 2001-2019
</metadata>
<g transform="translate(0.000000,7730.000000) scale(0.100000,-0.100000)"
fill="#000000" stroke="none">
<path d="M15105 52186 c-521 -116 -990 -380 -1355 -762 -401 -420 -645 -933
-726 -1529 -17 -123 -18 -442 -15 -6310 2 -3399 5 -6182 7 -6184 2 -2 48 38
102 90 272 263 625 560 963 812 64 47 127 91 140 97 131 56 1651 364 2199 445
l45 7 62 176 c34 97 111 321 172 497 61 176 216 624 345 995 204 589 232 676
218 685 -40 25 -105 93 -123 127 -18 34 -26 98 -13 98 3 0 43 -22 89 -50 151
-89 377 -181 525 -214 130 -28 163 -29 193 -6 21 16 27 30 27 58 0 20 -35 138
-78 262 l-77 225 -45 8 c-253 48 -421 136 -508 266 -92 138 -76 322 33 376 86
43 254 11 446 -85 73 -37 84 -40 109 -30 40 16 63 46 63 78 0 16 -25 69 -60
127 -89 147 -157 289 -199 412 -20 59 -41 112 -46 117 -4 6 -8 19 -8 31 0 81
145 144 575 251 673 168 1051 304 1313 474 l60 38 81 -169 c237 -495 435 -986
559 -1394 43 -139 97 -366 108 -452 l7 -53 1261 0 c809 0 1284 -4 1324 -10 96
-16 166 -46 222 -97 63 -57 90 -107 90 -170 -1 -135 -131 -246 -321 -273 -37
-6 -607 -10 -1344 -10 l-1281 0 -43 -66 c-145 -220 -479 -340 -887 -320 l-131
7 -12 -88 c-6 -48 -14 -116 -17 -150 l-7 -63 1864 0 c1623 0 1872 -2 1922 -15
242 -63 335 -267 187 -415 -22 -22 -62 -51 -89 -65 -114 -57 -10 -55 -2068
-55 -1508 0 -1893 -3 -1893 -12 0 -7 -18 -152 -40 -323 -22 -170 -40 -318 -40
-327 0 -17 64 -18 1209 -18 1341 0 1243 -4 1681 71 382 65 828 167 1190 273
349 101 875 287 1235 435 140 57 169 73 167 88 -15 84 -13 142 6 180 24 47 85
104 141 133 85 43 141 50 403 50 l248 0 84 44 c240 125 612 352 871 531 l145
100 -807 5 c-800 5 -809 6 -873 27 -193 65 -279 216 -203 355 34 62 112 120
202 151 l66 22 1155 3 1155 2 150 153 c531 540 876 1093 1040 1667 26 92 37
117 55 125 20 9 22 15 17 65 -4 30 -13 150 -23 265 -9 116 -17 210 -18 211 0
0 -1909 -40 -4241 -91 -2332 -50 -4242 -90 -4244 -89 -1 2 13 29 33 62 66 106
89 189 94 344 5 153 -6 256 -44 397 -70 262 -214 473 -379 556 -57 28 -67 30
-175 30 -103 -1 -121 -4 -173 -27 -126 -58 -244 -159 -408 -346 -69 -79 -82
-75 -199 50 -213 228 -426 330 -660 315 -110 -7 -184 -27 -298 -82 -202 -97
-331 -215 -414 -378 -40 -81 -68 -196 -68 -283 0 -62 -3 -77 -24 -100 l-23
-28 -116 14 c-156 18 -324 9 -444 -24 -157 -43 -265 -108 -379 -228 -78 -82
-131 -164 -181 -277 l-33 -76 -123 0 c-118 0 -125 1 -189 33 -113 55 -222 189
-275 336 -45 128 -42 -13 -63 3326 -11 1735 -19 3478 -20 3873 0 676 -1 717
-17 716 -10 0 -63 -11 -118 -23z"/>
<path d="M38466 51988 c-3 -29 -8 -483 -11 -1008 -3 -525 -17 -2096 -30 -3490
-21 -2050 -28 -2548 -39 -2605 -53 -267 -216 -456 -418 -486 -44 -7 -7919
-179 -8178 -180 -21 0 -34 -15 -85 -105 -83 -146 -224 -364 -293 -452 -103
-132 -267 -240 -422 -278 l-65 -16 -28 -141 c-76 -392 -217 -888 -378 -1329
-38 -105 -69 -192 -69 -194 0 -2 402 -5 893 -6 834 -3 896 -5 947 -22 189 -63
283 -207 221 -341 -23 -51 -95 -117 -157 -145 -104 -48 -135 -49 -1169 -50
l-970 0 -171 -340 -171 -340 1196 -2 1196 -3 58 -23 c303 -123 264 -429 -64
-507 -55 -13 -243 -15 -1391 -15 l-1327 0 -120 -177 c-66 -98 -174 -250 -240
-338 l-119 -160 1596 -5 1597 -5 57 -23 c138 -56 209 -131 216 -231 9 -128
-87 -232 -255 -275 -54 -14 -255 -16 -1870 -16 l-1810 0 -244 -243 c-316 -315
-596 -560 -892 -777 l-88 -65 5963 -5 c5654 -5 5966 -6 6023 -23 249 -73 433
-258 502 -507 17 -62 18 -277 18 -5185 0 -4889 -1 -5123 -18 -5185 -79 -288
-314 -498 -591 -526 -67 -7 -18110 123 -18321 132 l-130 6 3 206 c2 164 38
779 86 1487 l5 70 -18 -93 c-10 -51 -22 -97 -27 -102 -14 -13 -259 -93 -471
-154 -723 -206 -1484 -340 -2208 -386 -208 -13 -795 -13 -983 0 -211 16 -484
47 -652 76 -135 23 -427 86 -462 99 -18 7 -16 -6 -57 400 -25 241 -75 812 -96
1100 -11 143 -24 343 -30 440 -3 55 -7 123 -10 150 -2 28 -7 109 -11 180 -3
72 -7 144 -9 160 -2 17 -9 164 -16 328 -7 163 -16 302 -20 308 -3 6 -75 14
-175 20 -93 5 -221 16 -284 24 -103 14 -320 58 -356 72 -12 5 -14 -404 -11
-2843 3 -3172 -3 -2890 72 -3259 63 -308 152 -568 295 -860 102 -209 190 -357
317 -534 l90 -127 6 -804 c6 -761 12 -1029 37 -1665 87 -2209 306 -4654 605
-6750 130 -912 298 -1866 350 -1990 19 -48 71 -101 119 -125 94 -45 454 -65
652 -35 104 16 211 48 254 77 19 13 48 45 64 71 28 46 30 54 37 215 4 92 13
619 19 1172 36 3381 100 5393 235 7325 24 350 86 1118 90 1123 1 1 51 -1 111
-5 l108 -8 8 -30 c4 -16 19 -136 33 -265 116 -1035 331 -2433 571 -3705 345
-1833 873 -4064 1331 -5625 52 -177 52 -178 101 -232 75 -83 148 -102 334 -87
244 18 479 64 699 135 135 43 175 62 211 101 51 55 52 87 8 277 -447 1943
-748 5052 -886 9165 l-7 204 344 -6 c189 -4 749 -16 1244 -27 2464 -54 6274
-129 9890 -195 1238 -22 1988 -35 4518 -79 439 -8 800 -16 803 -18 2 -3 -75
-549 -172 -1214 -96 -665 -222 -1533 -279 -1929 -57 -396 -161 -1111 -230
-1590 -69 -478 -127 -875 -129 -880 -2 -7 -545 -27 -1567 -58 -860 -26 -1620
-52 -1689 -57 -149 -11 -255 -37 -368 -91 -108 -50 -196 -113 -265 -190 -102
-113 -111 -138 -269 -755 -134 -526 -142 -565 -142 -654 0 -160 52 -278 179
-406 116 -118 262 -196 445 -241 72 -17 464 -18 10209 -20 8949 -3 10145 -1
10233 12 210 31 372 109 509 245 70 70 94 101 127 170 48 100 67 195 58 287
-8 76 -475 1722 -512 1802 -65 143 -195 269 -359 347 -171 81 -329 109 -570
100 -82 -3 -224 -8 -315 -11 -412 -12 -523 -16 -645 -20 -71 -3 -224 -7 -340
-10 -115 -3 -250 -8 -300 -10 -172 -8 -631 -20 -779 -20 l-149 0 -549 2508
c-302 1380 -548 2510 -546 2512 2 2 301 0 663 -5 801 -12 2876 -36 4165 -50
520 -5 1132 -12 1360 -15 228 -3 732 -7 1120 -10 388 -3 863 -7 1055 -10 193
-3 798 -7 1345 -10 547 -3 1200 -8 1450 -11 745 -9 5533 -6 6095 5 538 10 637
18 844 62 506 110 974 363 1336 724 432 429 700 973 780 1579 17 130 25 372
55 1531 96 3811 125 6282 117 9895 -5 2250 -10 2772 -37 4120 -89 4450 -319
7998 -655 10115 -65 411 -163 703 -337 1008 -441 771 -1194 1276 -2073 1392
-132 17 -324 25 -1350 55 -5054 147 -13628 347 -21440 500 -1997 39 -3111 60
-3197 60 l-87 0 -5 -52z m21599 -3628 c467 -52 909 -236 1274 -530 108 -87
299 -279 382 -385 267 -337 439 -736 506 -1175 25 -162 25 -530 0 -690 -82
-525 -304 -977 -665 -1352 -401 -415 -911 -667 -1488 -734 -183 -21 -487 -15
-659 15 -359 61 -670 183 -960 376 -542 362 -906 895 -1049 1540 -48 220 -62
576 -31 810 36 271 116 533 236 775 241 484 611 857 1094 1101 269 135 563
221 865 252 80 8 411 6 495 -3z m-18212 -8072 c4 -4286 7 -9191 7 -10900 l0
-3108 -625 0 -625 0 0 3108 c0 1709 3 6614 7 10900 l6 7792 612 0 612 0 6
-7792z m2067 -3108 l0 -10900 -620 0 -620 0 0 10900 0 10900 620 0 620 0 0
-10900z m2063 7433 c4 -1906 7 -6811 7 -10900 l0 -7433 -625 0 -625 0 0 7433
c0 4089 3 8994 7 10900 l6 3467 612 0 612 0 6 -3467z m2067 -7433 l0 -10900
-622 0 -621 0 6 3107 c4 1708 7 6613 7 10900 l0 7793 615 0 615 0 0 -10900z
m2063 5708 c4 -2855 7 -7760 7 -10900 l0 -5708 -620 0 -620 0 0 10900 0 10900
613 0 614 0 6 -5192z m2067 -5708 l0 -10900 -620 0 -620 0 0 3783 c0 2080 3
6985 7 10900 l6 7117 614 0 613 0 0 -10900z m2060 7127 c0 -2076 3 -6981 7
-10900 l6 -7127 -621 0 -622 0 0 10900 0 10900 615 0 615 0 0 -3773z m7703
-1872 c83 -22 133 -50 199 -113 99 -94 142 -194 142 -327 0 -86 -19 -160 -60
-231 -31 -53 -128 -145 -182 -173 -105 -54 8 -51 -2194 -51 -1459 0 -2052 3
-2090 11 -136 29 -253 121 -315 247 -38 75 -38 77 -38 197 0 120 0 122 38 197
59 120 179 218 304 247 22 5 921 9 2088 10 1790 1 2058 -1 2108 -14z m-24313
-759 c190 -64 283 -208 221 -341 -35 -75 -102 -128 -211 -167 l-65 -23 -2740
0 -2740 0 -65 23 c-85 30 -161 83 -196 135 -22 33 -29 56 -32 107 -3 58 1 71
27 117 48 81 150 141 274 162 29 5 1253 8 2762 7 2613 -1 2712 -2 2765 -20z
m22590 -1189 c492 -86 926 -305 1281 -645 386 -370 630 -827 726 -1362 24
-130 26 -172 27 -395 1 -274 -9 -370 -63 -590 -117 -476 -366 -895 -732 -1231
-341 -313 -765 -520 -1240 -604 -155 -28 -492 -38 -661 -21 -454 47 -917 238
-1278 527 -109 88 -286 265 -374 374 -289 361 -480 824 -527 1278 -17 169 -7
506 21 661 84 476 296 908 608 1244 430 462 960 725 1597 791 22 2 137 3 255
1 175 -3 242 -8 360 -28z m-22557 -55 c175 -71 251 -214 181 -342 -47 -86
-147 -148 -274 -170 -46 -8 -850 -10 -2775 -8 l-2710 3 -65 23 c-80 29 -151
79 -187 133 -37 57 -44 148 -15 206 24 47 85 104 142 133 101 52 -62 49 2895
47 l2750 -2 58 -23z m-11 -1230 c138 -56 218 -146 218 -246 0 -121 -98 -218
-265 -262 -41 -11 -536 -14 -2770 -14 -2940 0 -2771 -3 -2876 50 -56 29 -117
86 -141 133 -29 58 -22 149 15 206 48 72 158 136 267 154 14 2 1256 4 2760 3
l2735 -1 57 -23z m24249 -4612 c240 -46 407 -278 369 -515 -24 -151 -119 -277
-259 -344 l-76 -36 -2080 -3 c-2281 -2 -2123 -6 -2237 55 -69 37 -153 130
-191 210 -30 65 -32 74 -32 188 0 113 2 124 31 185 61 129 192 234 324 259 66
13 4084 14 4151 1z m-1746 -1984 c545 -80 1012 -313 1396 -696 691 -690 905
-1714 548 -2627 -180 -460 -509 -864 -934 -1148 -219 -146 -560 -289 -820
-345 -329 -70 -644 -75 -971 -14 -823 151 -1520 726 -1828 1508 -291 736 -205
1575 228 2236 135 205 366 456 551 596 377 287 801 454 1275 504 115 12 432 4
555 -14z m1720 -5826 c197 -29 354 -183 387 -383 35 -211 -98 -427 -306 -497
-62 -20 -65 -20 -2151 -18 l-2090 3 -76 36 c-99 48 -170 119 -218 218 -35 74
-36 80 -36 191 0 109 2 119 32 182 72 153 191 244 348 268 78 12 4027 11 4110
0z m-19266 -3240 c20479 -349 23488 -402 23508 -415 32 -22 32 -79 -1 -100
-21 -14 -2203 22 -23517 385 -12922 220 -23556 400 -23631 400 l-138 0 0 68 0
67 147 -3 c82 -1 10716 -182 23632 -402z m480 -8147 c24 -29 20 -58 -9 -84
-17 -14 -74 -17 -450 -24 -389 -7 -432 -6 -455 9 -29 19 -34 61 -11 92 13 17
32 19 228 24 117 3 317 7 445 8 l232 2 20 -27z m-2087 -20 c26 -24 24 -79 -4
-97 -20 -13 -613 -23 -4193 -75 -2293 -33 -4303 -64 -4465 -69 -263 -9 -302
-12 -360 -32 -219 -74 -394 -251 -454 -461 -9 -31 -45 -235 -81 -455 -57 -355
-66 -401 -85 -416 -45 -36 -100 -9 -100 48 0 59 119 786 141 859 71 238 243
428 472 524 160 66 -168 57 4457 126 4957 73 4648 70 4672 48z"/>
<path d="M22123 37524 c-336 -56 -621 -105 -632 -109 -32 -10 -43 -37 -81
-195 l-36 -145 -44 -7 c-50 -8 -304 -34 -420 -44 -41 -3 -92 -10 -112 -15 -46
-12 -86 -58 -94 -110 -4 -21 -12 -39 -18 -39 -26 0 -742 -73 -1131 -116 -457
-50 -476 -54 -520 -120 -23 -34 -722 -2460 -712 -2471 4 -3 47 -9 96 -14 236
-22 744 -147 1194 -295 l197 -65 -6 -27 c-38 -163 -115 -254 -241 -287 -69
-18 -90 -18 -170 -2 -34 8 -60 10 -57 6 2 -4 63 -53 134 -108 l129 -101 -14
-46 c-19 -64 -58 -116 -108 -145 -55 -31 -154 -31 -242 0 l-59 21 25 -27 c169
-186 229 -254 229 -261 0 -25 -87 -104 -145 -133 -59 -29 -72 -31 -133 -27
-54 4 -84 13 -150 48 -69 35 -90 41 -120 37 -56 -10 -127 -65 -259 -205 -186
-197 -313 -285 -488 -338 -80 -24 -107 -27 -240 -28 l-150 -1 -203 -705 c-111
-388 -202 -722 -202 -743 0 -52 25 -102 67 -134 30 -23 48 -27 141 -34 88 -6
3145 -34 3712 -34 204 0 201 -1 315 153 613 825 1814 2987 3177 5716 220 441
220 441 216 497 -5 66 -37 117 -90 142 -65 31 -311 42 -924 42 l-581 -1 10 38
c14 57 2 102 -39 137 -39 35 -64 38 -199 22 -44 -6 -114 -13 -155 -16 -41 -4
-115 -11 -164 -16 -49 -5 -91 -8 -93 -5 -3 2 18 74 46 160 53 160 56 190 23
220 -41 36 -51 35 -679 -70z"/>
<path d="M31579 36067 c-100 -42 -153 -95 -200 -202 -35 -78 -32 -192 9 -278
36 -78 93 -136 170 -174 50 -25 68 -28 152 -28 82 0 103 4 151 26 79 37 133
90 171 167 30 60 33 75 33 157 0 77 -4 98 -27 147 -35 75 -94 138 -164 173
-49 25 -72 30 -148 32 -78 3 -99 0 -147 -20z"/>
<path d="M25623 34825 c-176 -55 -288 -232 -254 -403 58 -293 403 -398 614
-186 78 79 115 218 87 333 -45 188 -264 314 -447 256z"/>
<path d="M13773 34322 c-454 -602 -489 -1170 -104 -1679 33 -43 75 -93 94
-111 l34 -33 6 678 c4 373 11 797 17 942 6 145 9 266 7 267 -2 2 -26 -27 -54
-64z"/>
<path d="M23210 32344 c-103 -28 -186 -99 -233 -202 -17 -38 -22 -66 -22 -142
0 -88 3 -101 33 -162 38 -77 91 -128 172 -166 76 -35 198 -37 283 -3 70 28
145 98 183 172 39 76 45 199 15 281 -44 114 -130 192 -246 223 -72 18 -113 18
-185 -1z"/>
<path d="M28069 32267 c-159 -45 -262 -182 -262 -347 0 -143 72 -259 201 -322
60 -30 75 -33 152 -33 72 0 94 5 145 28 78 36 146 104 182 181 24 52 28 74 28
146 0 75 -4 93 -31 150 -39 82 -92 135 -171 172 -73 35 -173 45 -244 25z"/>
<path d="M18812 11173 c-73 -497 -127 -1000 -117 -1081 21 -172 124 -313 280
-388 90 -43 149 -49 695 -69 1615 -59 2732 -83 3102 -68 206 9 218 13 266 83
54 80 -4 233 -116 302 -62 39 -3067 1416 -3070 1408 -2 -5 4 -36 13 -70 19
-72 22 -67 -85 -124 -116 -62 -203 -80 -375 -81 -87 0 -179 6 -220 14 -73 14
-270 74 -294 90 -9 6 -17 44 -24 105 -6 53 -13 96 -17 96 -4 0 -21 -98 -38
-217z"/>
<path d="M14976 11233 c-95 -184 -237 -641 -342 -1098 -57 -247 -62 -331 -25
-407 30 -63 84 -116 145 -144 51 -23 76 -27 211 -39 39 -3 88 -8 110 -10 209
-22 649 -45 855 -45 173 0 188 2 236 24 68 32 115 74 144 133 50 98 27 334
-65 653 -96 334 -274 674 -459 875 l-37 40 6 -102 7 -102 -39 -10 c-221 -58
-443 -47 -620 29 -49 21 -52 24 -63 73 -6 29 -14 71 -17 94 -8 59 -27 73 -47
36z"/>
</g>
</svg>
